<?xml version="1.0" encoding="UTF-8" standalone="no"?>
<svg width="50px" height="50px" viewBox="0 0 50 50" version="1.1" xmlns="http://www.w3.org/2000/svg" xmlns:xlink="http://www.w3.org/1999/xlink" xmlns:sketch="http://www.bohemiancoding.com/sketch/ns">
    <!-- Generator: Sketch 3.1.1 (8761) - http://www.bohemiancoding.com/sketch -->
    <title>pictureFrameIcon</title>
    <desc>Created with Sketch.</desc>
    <defs></defs>
    <g id="Page-1" stroke="none" stroke-width="1" fill="none" fill-rule="evenodd" sketch:type="MSPage">
        <g id="Find-People" sketch:type="MSArtboardGroup" transform="translate(-39.000000, -1066.000000)" fill="#FFFFFF">
            <g id="Tab-Bar-2" sketch:type="MSLayerGroup" transform="translate(0.000000, 1046.000000)">
                <g id="Imported-Layers-3-+-Rectangle-222-+-Rectangle-223-+-Rectangle-224" transform="translate(39.000000, 20.000000)" sketch:type="MSShapeGroup">
                    <path d="M47.8555036,27.9345429 C46.9695036,27.0122215 46.5326147,25.9863286 46.5206147,24.9517304 C46.5326147,23.9173554 46.9695036,22.8912393 47.8555036,21.9691411 C48.0868369,21.7282929 48.3410591,21.5088733 48.5652814,21.2617751 C49.655948,20.0595429 50.213948,18.6519536 49.5868369,17.0983822 C49.2032814,16.1483822 48.5523925,15.2611054 47.8601703,14.4923554 C46.323948,12.7865518 46.0357258,10.8465965 47.2497258,9.05061434 C47.7946147,8.24414113 48.5763925,7.60396256 49.0521703,6.7499447 C49.9723925,5.0983822 49.6643925,2.92204291 48.359948,1.54615006 C46.8841703,-0.0105463725 44.393948,-0.0806356582 42.6403925,1.03387327 C41.6321703,1.67449827 40.9221703,2.64190898 39.7815036,3.1030697 C38.7490591,3.5202572 37.6735036,3.41802506 36.701948,2.88789113 C36.0895036,2.55351613 35.5490591,2.09257863 35.0588369,1.59860541 C32.9295036,-0.54581423 30.4475036,-0.532198158 28.3075036,1.6358822 C27.1606147,2.79793577 26.0426147,3.37896256 24.9246147,3.37940898 C23.8066147,3.37896256 22.6888369,2.79793577 21.541948,1.6358822 C19.4017258,-0.532198158 16.919948,-0.54581423 14.7906147,1.59860541 C14.3001703,2.09257863 13.759948,2.55351613 13.1472814,2.88789113 C12.175948,3.41802506 11.1003925,3.5202572 10.067948,3.1030697 C8.92705914,2.64190898 8.21705914,1.67449827 7.20905914,1.03387327 C5.45550358,-0.0806356582 2.96528136,-0.0105463725 1.48928136,1.54615006 C0.18505914,2.92204291 -0.123163082,5.0983822 0.797281363,6.7499447 C1.27305914,7.60396256 2.0546147,8.24414113 2.59972581,9.05061434 C3.81372581,10.8465965 3.52550358,12.7865518 1.98928136,14.4923554 C1.29683692,15.2611054 0.646170252,16.1483822 0.262614696,17.0983822 C-0.364718637,18.6519536 0.193503585,20.0595429 1.28417025,21.2617751 C1.50817025,21.5088733 1.76239247,21.7282929 1.99372581,21.9691411 C2.87972581,22.8912393 3.3166147,23.9173554 3.3286147,24.9517304 C3.3166147,25.9863286 2.87972581,27.0122215 1.99372581,27.9345429 C1.76239247,28.1751679 1.50817025,28.3945876 1.28417025,28.6416858 C0.193503585,29.8439179 -0.364718637,31.2515072 0.262614696,32.8050786 C0.646170252,33.7550786 1.29683692,34.6423554 1.98928136,35.4111054 C3.52550358,37.116909 3.81372581,39.0568643 2.59972581,40.8530697 C2.0546147,41.6593197 1.27305914,42.2994983 0.797281363,43.1535161 C-0.123163082,44.8050786 0.18505914,46.9814179 1.48928136,48.3573108 C2.96528136,49.9140072 5.45550358,49.9843197 7.20905914,48.8695876 C8.21705914,48.2289626 8.92705914,47.2615518 10.067948,46.8003911 C11.1003925,46.3832036 12.175948,46.4854358 13.1472814,47.0155697 C13.759948,47.3499447 14.3001703,47.8108822 14.7906147,48.3048554 C16.919948,50.4492751 19.4017258,50.435659 21.541948,48.2675786 C22.6888369,47.1055251 23.8066147,46.5244983 24.9246147,46.5242751 C26.0426147,46.5244983 27.1606147,47.1055251 28.3075036,48.2675786 C30.4475036,50.435659 32.9295036,50.4492751 35.0588369,48.3048554 C35.5490591,47.8108822 36.0895036,47.3499447 36.701948,47.0155697 C37.6735036,46.4854358 38.7490591,46.3832036 39.7815036,46.8003911 C40.9221703,47.2615518 41.6321703,48.2289626 42.6403925,48.8695876 C44.393948,49.9843197 46.8841703,49.9140072 48.359948,48.3573108 C49.6643925,46.9814179 49.9723925,44.8050786 49.0521703,43.1535161 C48.5763925,42.2994983 47.7946147,41.6593197 47.2497258,40.8530697 C46.0357258,39.0568643 46.323948,37.116909 47.8601703,35.4111054 C48.5523925,34.6423554 49.2032814,33.7550786 49.5868369,32.8050786 C50.213948,31.2515072 49.655948,29.8439179 48.5652814,28.6416858 C48.3410591,28.3945876 48.0868369,28.1751679 47.8555036,27.9345429 L47.8555036,27.9345429 Z M9.00705914,9.03699827 L40.8423925,9.03699827 L40.8423925,40.8666858 L9.00705914,40.8666858 L9.00705914,9.03699827 Z" id="pictureFrameIcon"></path>
                </g>
            </g>
        </g>
    </g>
</svg>