<?xml version="1.0" encoding="UTF-8" standalone="no"?>
<svg width="49px" height="50px" viewBox="0 0 49 50" version="1.1" xmlns="http://www.w3.org/2000/svg" xmlns:xlink="http://www.w3.org/1999/xlink" xmlns:sketch="http://www.bohemiancoding.com/sketch/ns">
    <!-- Generator: Sketch 3.1.1 (8761) - http://www.bohemiancoding.com/sketch -->
    <title>settingsIcon</title>
    <desc>Created with Sketch.</desc>
    <defs></defs>
    <g id="Page-1" stroke="none" stroke-width="1" fill="none" fill-rule="evenodd" sketch:type="MSPage">
        <g id="Find-People" sketch:type="MSArtboardGroup" transform="translate(-551.000000, -1066.000000)" fill-opacity="0.349999994" fill="#FFFFFF">
            <g id="Tab-Bar-2" sketch:type="MSLayerGroup" transform="translate(0.000000, 1046.000000)">
                <path d="M597.363514,40.9625 L595.136486,40.9625 C594.117568,40.9625 593.035135,40.1444444 592.733784,39.1430556 L591.454054,35.95 C590.974324,35.0277778 591.168919,33.6638889 591.889189,32.9263889 L593.467568,31.3041667 C594.189189,30.5611111 594.189189,29.3486111 593.467568,28.6055556 L590.840541,25.9111111 C590.121622,25.1708333 588.940541,25.1708333 588.22027,25.9111111 L586.636486,27.5319444 C585.92027,28.2722222 584.589189,28.4736111 583.693243,27.9777778 L580.591892,26.6666667 C579.618919,26.3541667 578.821622,25.2444444 578.821622,24.1944444 L578.821622,21.9083333 C578.821622,20.8597222 577.983784,20 576.962162,20 L573.254054,20 C572.233784,20 571.397297,20.8597222 571.397297,21.9083333 L571.397297,24.1944444 C571.397297,25.2444444 570.601351,26.3541667 569.628378,26.6666667 L566.527027,27.9777778 C565.624324,28.475 564.301351,28.2763889 563.57973,27.5319444 L561.997297,25.9111111 C561.275676,25.1708333 560.097297,25.1708333 559.377027,25.9111111 L556.755405,28.6055556 C556.02973,29.3430556 556.02973,30.5611111 556.755405,31.3 L558.328378,32.9263889 C559.05,33.6638889 559.251351,35.0277778 558.763514,35.95 L557.489189,39.1458333 C557.183784,40.1472222 556.104054,40.9666667 555.083784,40.9666667 L552.855405,40.9625 C551.835135,40.9625 551,41.8208333 551,42.8694444 L551,46.6819444 C551,47.7277778 551.835135,48.5888889 552.855405,48.5888889 L555.083784,48.5888889 C556.104054,48.5902778 557.183784,49.4097222 557.485135,50.4097222 L558.763514,53.6027778 C559.25,54.5291667 559.05,55.8944444 558.328378,56.6305556 L556.75,58.2513889 C556.02973,58.9958333 556.02973,60.2027778 556.75,60.9513889 L559.377027,63.6458333 C560.097297,64.3875 561.275676,64.3875 561.997297,63.6458333 L563.57973,62.025 C564.298649,61.2861111 565.624324,61.0847222 566.517568,61.5805556 L569.628378,62.8944444 C570.601351,63.2069444 571.397297,64.3180556 571.397297,65.3666667 L571.397297,67.65 C571.397297,68.6930556 572.233784,69.5541667 573.254054,69.5541667 L576.962162,69.5541667 C577.983784,69.5541667 578.821622,68.6930556 578.821622,67.65 L578.821622,65.3666667 C578.821622,64.3180556 579.618919,63.2069444 580.591892,62.8944444 L583.7,61.5805556 C584.598649,61.0847222 585.924324,61.2861111 586.648649,62.025 L588.22027,63.6458333 C588.940541,64.3875 590.121622,64.3875 590.840541,63.6458333 L593.467568,60.9513889 C594.189189,60.2027778 594.189189,58.9958333 593.467568,58.2513889 L591.889189,56.6305556 C591.168919,55.8944444 590.974324,54.5291667 591.454054,53.6027778 L592.733784,50.4097222 C593.035135,49.4097222 594.121622,48.5902778 595.136486,48.5902778 L597.363514,48.5902778 C598.381081,48.5902778 599.214865,47.7319444 599.214865,46.6861111 L599.214865,42.8694444 C599.214865,41.8208333 598.381081,40.9625 597.363514,40.9625 L597.363514,40.9625 Z M584.387838,44.7708333 C584.387838,50.0388889 580.235135,54.3013889 575.113514,54.3013889 C569.989189,54.3013889 565.839189,50.0388889 565.839189,44.7708333 C565.839189,39.5097222 569.989189,35.2444444 575.113514,35.2444444 C580.235135,35.2444444 584.387838,39.5097222 584.387838,44.7708333 L584.387838,44.7708333 Z" id="settingsIcon" sketch:type="MSShapeGroup"></path>
            </g>
        </g>
    </g>
</svg>